STARTFONT 2.1
COMMENT "Generated by fontforge, http://fontforge.sourceforge.net"
COMMENT "Digitized data copyright (c) 2007, Google Corporation. Copyright (c) 2012, Danh Hong (khmertype.blogspot.com)"
FONT -FontForge-Nokora-Book-R-Normal--16-100-120-120-P-59-ISO10646-1
SIZE 10 120 120
FONTBOUNDINGBOX 48 22 -18 -7
STARTPROPERTIES 37
FOUNDRY "FontForge"
FAMILY_NAME "Nokora"
WEIGHT_NAME "Book"
SLANT "R"
SETWIDTH_NAME "Normal"
ADD_STYLE_NAME ""
PIXEL_SIZE 16
POINT_SIZE 100
RESOLUTION_X 120
RESOLUTION_Y 120
SPACING "P"
AVERAGE_WIDTH 59
CHARSET_REGISTRY "ISO10646"
CHARSET_ENCODING "1"
FONTNAME_REGISTRY ""
CHARSET_COLLECTIONS "ISO10646-1"
FONT_NAME "Nokora-Regular"
FACE_NAME "Nokora Regular"
COPYRIGHT "Digitized data copyright (c) 2007, Google Corporation. Copyright (c) 2012, Danh Hong (khmertype.blogspot.com)"
FONT_VERSION "1.3 October 14, 2012"
FONT_ASCENT 13
FONT_DESCENT 3
UNDERLINE_POSITION -2
UNDERLINE_THICKNESS 1
RAW_ASCENT 799
RAW_DESCENT 200
NORM_SPACE 4
RELATIVE_WEIGHT 40
RELATIVE_SETWIDTH 50
SUPERSCRIPT_X 0
SUPERSCRIPT_Y 7
SUPERSCRIPT_SIZE 10
SUBSCRIPT_X 0
SUBSCRIPT_Y 2
SUBSCRIPT_SIZE 10
FIGURE_WIDTH 9
_GBDFED_INFO "Edited with gbdfed 1.6."
ENDPROPERTIES
CHARS 215
STARTCHAR .notdef
ENCODING -1
SWIDTH 960 0
DWIDTH 16 0
BBX 0 0 0 0
BITMAP
ENDCHAR
STARTCHAR .null
ENCODING -1
SWIDTH 0 0
DWIDTH 0 0
BBX 0 0 0 0
BITMAP
ENDCHAR
STARTCHAR nonmarkingreturn
ENCODING -1
SWIDTH 960 0
DWIDTH 16 0
BBX 0 0 0 0
BITMAP
ENDCHAR
STARTCHAR .notdef
ENCODING -1
SWIDTH 480 0
DWIDTH 8 0
BBX 0 0 0 0
BITMAP
ENDCHAR
STARTCHAR space
ENCODING 32
SWIDTH 240 0
DWIDTH 4 0
BBX 0 0 0 0
BITMAP
ENDCHAR
STARTCHAR exclam
ENCODING 33
SWIDTH 240 0
DWIDTH 4 0
BBX 2 11 1 0
BITMAP
C0
C0
C0
C0
C0
C0
C0
C0
00
C0
C0
ENDCHAR
STARTCHAR quotedbl
ENCODING 34
SWIDTH 360 0
DWIDTH 6 0
BBX 5 4 0 7
BITMAP
D8
D8
D8
D8
ENDCHAR
STARTCHAR numbersign
ENCODING 35
SWIDTH 600 0
DWIDTH 10 0
BBX 10 11 0 0
BITMAP
0900
0900
1900
7FC0
1200
1200
1200
FF80
2400
2400
2400
ENDCHAR
STARTCHAR dollar
ENCODING 36
SWIDTH 540 0
DWIDTH 9 0
BBX 7 13 1 -1
BITMAP
10
7E
92
90
D0
30
18
16
12
96
FC
10
10
ENDCHAR
STARTCHAR percent
ENCODING 37
SWIDTH 780 0
DWIDTH 13 0
BBX 11 12 1 0
BITMAP
7180
9900
8B00
8A00
8C00
8CC0
9920
7920
1120
3120
2120
60C0
ENDCHAR
STARTCHAR ampersand
ENCODING 38
SWIDTH 660 0
DWIDTH 11 0
BBX 10 12 1 0
BITMAP
3C00
4200
4200
4600
3C00
3C00
7800
DCC0
8E80
8780
C780
7CC0
ENDCHAR
STARTCHAR quotesingle
ENCODING 39
SWIDTH 240 0
DWIDTH 4 0
BBX 2 4 1 7
BITMAP
C0
C0
C0
C0
ENDCHAR
STARTCHAR parenleft
ENCODING 40
SWIDTH 300 0
DWIDTH 5 0
BBX 3 14 1 -3
BITMAP
20
40
40
80
80
80
80
80
80
80
80
40
40
20
ENDCHAR
STARTCHAR parenright
ENCODING 41
SWIDTH 300 0
DWIDTH 5 0
BBX 3 14 1 -3
BITMAP
80
40
40
20
20
20
20
20
20
20
20
40
40
80
ENDCHAR
STARTCHAR asterisk
ENCODING 42
SWIDTH 540 0
DWIDTH 9 0
BBX 8 7 0 6
BITMAP
18
18
DB
FF
3C
24
26
ENDCHAR
STARTCHAR plus
ENCODING 43
SWIDTH 540 0
DWIDTH 9 0
BBX 7 7 1 2
BITMAP
10
10
10
FE
10
10
10
ENDCHAR
STARTCHAR comma
ENCODING 44
SWIDTH 240 0
DWIDTH 4 0
BBX 2 4 1 -2
BITMAP
40
C0
80
80
ENDCHAR
STARTCHAR hyphen
ENCODING 45
SWIDTH 300 0
DWIDTH 5 0
BBX 4 1 1 4
BITMAP
F0
ENDCHAR
STARTCHAR period
ENCODING 46
SWIDTH 240 0
DWIDTH 4 0
BBX 2 2 1 0
BITMAP
C0
C0
ENDCHAR
STARTCHAR slash
ENCODING 47
SWIDTH 360 0
DWIDTH 6 0
BBX 6 11 0 0
BITMAP
0C
08
18
18
10
30
20
60
60
40
C0
ENDCHAR
STARTCHAR zero
ENCODING 48
SWIDTH 540 0
DWIDTH 9 0
BBX 7 12 1 0
BITMAP
38
44
82
82
82
82
82
82
82
82
44
38
ENDCHAR
STARTCHAR one
ENCODING 49
SWIDTH 540 0
DWIDTH 9 0
BBX 4 11 2 0
BITMAP
30
70
90
10
10
10
10
10
10
10
10
ENDCHAR
STARTCHAR two
ENCODING 50
SWIDTH 540 0
DWIDTH 9 0
BBX 7 12 1 0
BITMAP
70
88
04
04
04
04
08
10
20
40
80
FE
ENDCHAR
STARTCHAR three
ENCODING 51
SWIDTH 540 0
DWIDTH 9 0
BBX 7 12 1 0
BITMAP
7C
C6
02
02
06
38
04
02
02
02
84
F8
ENDCHAR
STARTCHAR four
ENCODING 52
SWIDTH 540 0
DWIDTH 9 0
BBX 9 11 0 0
BITMAP
0200
0600
0A00
1200
2200
4200
8200
FF80
0200
0200
0200
ENDCHAR
STARTCHAR five
ENCODING 53
SWIDTH 540 0
DWIDTH 9 0
BBX 7 11 1 0
BITMAP
FC
80
80
80
F8
04
02
02
02
04
F8
ENDCHAR
STARTCHAR six
ENCODING 54
SWIDTH 540 0
DWIDTH 9 0
BBX 7 12 1 0
BITMAP
1C
60
40
80
80
BC
C6
82
82
82
44
38
ENDCHAR
STARTCHAR seven
ENCODING 55
SWIDTH 540 0
DWIDTH 9 0
BBX 8 11 0 0
BITMAP
FF
01
02
02
06
04
0C
08
18
18
30
ENDCHAR
STARTCHAR eight
ENCODING 56
SWIDTH 540 0
DWIDTH 9 0
BBX 7 12 1 0
BITMAP
7C
C6
82
82
6C
38
7C
C6
82
82
C6
7C
ENDCHAR
STARTCHAR nine
ENCODING 57
SWIDTH 540 0
DWIDTH 9 0
BBX 7 12 1 0
BITMAP
38
44
82
82
82
82
46
7A
02
04
0C
70
ENDCHAR
STARTCHAR colon
ENCODING 58
SWIDTH 240 0
DWIDTH 4 0
BBX 2 9 1 0
BITMAP
C0
C0
00
00
00
00
00
C0
C0
ENDCHAR
STARTCHAR semicolon
ENCODING 59
SWIDTH 240 0
DWIDTH 4 0
BBX 2 11 1 -2
BITMAP
C0
C0
00
00
00
00
00
40
C0
80
80
ENDCHAR
STARTCHAR less
ENCODING 60
SWIDTH 540 0
DWIDTH 9 0
BBX 7 7 1 2
BITMAP
02
1C
70
80
60
1C
02
ENDCHAR
STARTCHAR equal
ENCODING 61
SWIDTH 540 0
DWIDTH 9 0
BBX 7 4 1 4
BITMAP
FE
00
00
FE
ENDCHAR
STARTCHAR greater
ENCODING 62
SWIDTH 540 0
DWIDTH 9 0
BBX 7 8 1 2
BITMAP
80
60
18
04
06
1C
70
80
ENDCHAR
STARTCHAR question
ENCODING 63
SWIDTH 420 0
DWIDTH 7 0
BBX 6 12 0 0
BITMAP
78
8C
04
04
04
08
10
20
20
00
30
30
ENDCHAR
STARTCHAR at
ENCODING 64
SWIDTH 840 0
DWIDTH 14 0
BBX 12 12 1 -1
BITMAP
0F80
3060
4020
4F10
9910
9110
9110
9130
8EE0
4000
6000
1F80
ENDCHAR
STARTCHAR braceleft
ENCODING 123
SWIDTH 360 0
DWIDTH 6 0
BBX 5 14 0 -3
BITMAP
18
20
20
20
20
20
E0
20
20
20
20
20
20
18
ENDCHAR
STARTCHAR bar
ENCODING 124
SWIDTH 540 0
DWIDTH 9 0
BBX 1 16 4 -4
BITMAP
80
80
80
80
80
80
80
80
80
80
80
80
80
80
80
80
ENDCHAR
STARTCHAR braceright
ENCODING 125
SWIDTH 360 0
DWIDTH 6 0
BBX 5 14 0 -3
BITMAP
C0
20
20
20
20
20
38
20
20
20
20
20
20
C0
ENDCHAR
STARTCHAR asciitilde
ENCODING 126
SWIDTH 540 0
DWIDTH 9 0
BBX 7 2 1 5
BITMAP
F2
9E
ENDCHAR
STARTCHAR guillemotleft
ENCODING 171
SWIDTH 480 0
DWIDTH 8 0
BBX 6 7 1 1
BITMAP
24
48
48
90
48
48
24
ENDCHAR
STARTCHAR uni00AD
ENCODING 173
SWIDTH 300 0
DWIDTH 5 0
BBX 4 1 1 4
BITMAP
F0
ENDCHAR
STARTCHAR guillemotright
ENCODING 187
SWIDTH 480 0
DWIDTH 8 0
BBX 6 7 1 1
BITMAP
90
48
48
24
48
48
90
ENDCHAR
STARTCHAR uni1780
ENCODING 6016
SWIDTH 540 0
DWIDTH 9 0
BBX 7 9 0 0
BITMAP
FE
00
7C
82
82
82
82
82
82
ENDCHAR
STARTCHAR uni1781
ENCODING 6017
SWIDTH 540 0
DWIDTH 9 0
BBX 7 9 0 0
BITMAP
7C
82
C2
06
F8
82
82
82
7C
ENDCHAR
STARTCHAR uni1782
ENCODING 6018
SWIDTH 540 0
DWIDTH 9 0
BBX 7 9 0 0
BITMAP
FE
00
7C
82
82
82
E2
82
82
ENDCHAR
STARTCHAR uni1783
ENCODING 6019
SWIDTH 780 0
DWIDTH 13 0
BBX 12 9 -1 0
BITMAP
C230
4420
4230
4210
4210
4210
4210
4210
3DE0
ENDCHAR
STARTCHAR uni1784
ENCODING 6020
SWIDTH 540 0
DWIDTH 9 0
BBX 8 11 -1 0
BITMAP
40
40
4E
4A
3F
C1
41
49
55
63
41
ENDCHAR
STARTCHAR uni1785
ENCODING 6021
SWIDTH 540 0
DWIDTH 9 0
BBX 8 9 -1 0
BITMAP
7F
80
4F
49
47
41
41
41
3E
ENDCHAR
STARTCHAR uni1786
ENCODING 6022
SWIDTH 540 0
DWIDTH 9 0
BBX 8 9 -1 0
BITMAP
7F
80
CF
49
47
41
F9
D9
4E
ENDCHAR
STARTCHAR uni1787
ENCODING 6023
SWIDTH 540 0
DWIDTH 9 0
BBX 8 11 -1 0
BITMAP
01
01
7E
80
41
41
41
49
5F
77
63
ENDCHAR
STARTCHAR uni1788
ENCODING 6024
SWIDTH 1080 0
DWIDTH 18 0
BBX 16 9 0 0
BITMAP
7823
8442
8423
8421
8421
E421
A421
A421
E3DE
ENDCHAR
STARTCHAR uni1789
ENCODING 6025
SWIDTH 840 0
DWIDTH 14 0
BBX 12 13 0 -4
BITMAP
6DE0
B610
8410
8410
8410
E410
A410
A410
E410
0000
FC30
0310
01E0
ENDCHAR
STARTCHAR uni178A
ENCODING 6026
SWIDTH 540 0
DWIDTH 9 0
BBX 7 11 0 0
BITMAP
02
82
FE
00
00
82
82
92
BE
EE
C6
ENDCHAR
STARTCHAR uni178B
ENCODING 6027
SWIDTH 540 0
DWIDTH 9 0
BBX 8 11 -1 0
BITMAP
01
01
C7
44
43
41
41
41
41
41
3E
ENDCHAR
STARTCHAR uni178C
ENCODING 6028
SWIDTH 540 0
DWIDTH 9 0
BBX 7 9 0 0
BITMAP
6C
92
C2
06
F8
82
86
8E
7A
ENDCHAR
STARTCHAR uni178D
ENCODING 6029
SWIDTH 780 0
DWIDTH 13 0
BBX 11 9 0 0
BITMAP
7860
B4C0
8460
8420
8420
E420
A720
A720
E5C0
ENDCHAR
STARTCHAR uni178E
ENCODING 6030
SWIDTH 1080 0
DWIDTH 18 0
BBX 16 9 0 0
BITMAP
781E
8421
8421
8421
8421
E421
A4A1
A5E1
E661
ENDCHAR
STARTCHAR uni178F
ENCODING 6031
SWIDTH 540 0
DWIDTH 9 0
BBX 7 9 0 0
BITMAP
FE
00
7C
82
82
E2
A2
A2
E2
ENDCHAR
STARTCHAR uni1790
ENCODING 6032
SWIDTH 540 0
DWIDTH 9 0
BBX 8 11 -1 0
BITMAP
01
01
7E
80
4F
49
4F
41
41
41
3E
ENDCHAR
STARTCHAR uni1791
ENCODING 6033
SWIDTH 480 0
DWIDTH 8 0
BBX 6 9 0 0
BITMAP
78
84
80
CC
3C
84
84
84
78
ENDCHAR
STARTCHAR uni1792
ENCODING 6034
SWIDTH 540 0
DWIDTH 9 0
BBX 8 9 -1 0
BITMAP
7F
80
CF
49
47
49
5F
77
63
ENDCHAR
STARTCHAR uni1793
ENCODING 6035
SWIDTH 540 0
DWIDTH 9 0
BBX 7 9 0 0
BITMAP
7C
82
86
C0
3C
82
E2
BA
9C
ENDCHAR
STARTCHAR uni1794
ENCODING 6036
SWIDTH 540 0
DWIDTH 9 0
BBX 8 9 -1 0
BITMAP
43
82
43
41
41
41
41
41
3E
ENDCHAR
STARTCHAR uni1795
ENCODING 6037
SWIDTH 540 0
DWIDTH 9 0
BBX 8 11 -1 0
BITMAP
01
01
7E
80
4F
49
47
49
5F
77
63
ENDCHAR
STARTCHAR uni1796
ENCODING 6038
SWIDTH 540 0
DWIDTH 9 0
BBX 7 9 0 0
BITMAP
6C
92
82
82
82
E2
A2
A2
E2
ENDCHAR
STARTCHAR uni1797
ENCODING 6039
SWIDTH 540 0
DWIDTH 9 0
BBX 8 9 -1 0
BITMAP
7F
00
3E
41
41
41
21
A1
E1
ENDCHAR
STARTCHAR uni1798
ENCODING 6040
SWIDTH 540 0
DWIDTH 9 0
BBX 8 9 -1 0
BITMAP
43
82
43
41
7F
41
41
41
3E
ENDCHAR
STARTCHAR uni1799
ENCODING 6041
SWIDTH 840 0
DWIDTH 14 0
BBX 12 9 0 0
BITMAP
C430
8820
8430
8410
8410
8410
8410
8410
7FE0
ENDCHAR
STARTCHAR uni179A
ENCODING 6042
SWIDTH 360 0
DWIDTH 6 0
BBX 3 9 0 0
BITMAP
60
40
20
20
20
E0
A0
A0
E0
ENDCHAR
STARTCHAR uni179B
ENCODING 6043
SWIDTH 780 0
DWIDTH 13 0
BBX 11 9 0 0
BITMAP
7860
8440
8460
8420
8420
E420
A420
A420
E3C0
ENDCHAR
STARTCHAR uni179C
ENCODING 6044
SWIDTH 360 0
DWIDTH 6 0
BBX 4 11 0 0
BITMAP
10
10
70
40
20
20
20
E0
A0
A0
E0
ENDCHAR
STARTCHAR uni179D
ENCODING 6045
SWIDTH 540 0
DWIDTH 9 0
BBX 8 9 0 0
BITMAP
FE
00
7C
82
82
82
E7
82
82
ENDCHAR
STARTCHAR uni179E
ENCODING 6046
SWIDTH 540 0
DWIDTH 9 0
BBX 8 9 -1 0
BITMAP
42
84
42
41
43
41
41
41
3E
ENDCHAR
STARTCHAR uni179F
ENCODING 6047
SWIDTH 780 0
DWIDTH 13 0
BBX 11 9 0 0
BITMAP
7860
8040
7860
8420
8420
E420
A420
A420
E3C0
ENDCHAR
STARTCHAR uni17A0
ENCODING 6048
SWIDTH 780 0
DWIDTH 13 0
BBX 12 9 -1 0
BITMAP
41E0
8210
4210
4210
4210
4210
4210
4210
3C10
ENDCHAR
STARTCHAR uni17A1
ENCODING 6049
SWIDTH 780 0
DWIDTH 13 0
BBX 11 13 0 -4
BITMAP
7C60
8240
8020
C020
3E20
8620
8420
8420
7820
0CA0
05A0
0660
0420
ENDCHAR
STARTCHAR uni17A2
ENCODING 6050
SWIDTH 540 0
DWIDTH 9 0
BBX 7 9 0 0
BITMAP
46
84
46
42
7E
42
42
42
C6
ENDCHAR
STARTCHAR uni17A3
ENCODING 6051
SWIDTH 600 0
DWIDTH 10 0
BBX 8 9 0 0
BITMAP
43
82
43
41
7F
41
41
41
C3
ENDCHAR
STARTCHAR uni17A4
ENCODING 6052
SWIDTH 900 0
DWIDTH 15 0
BBX 13 9 0 0
BITMAP
61F0
C308
6188
2088
3F88
2088
2088
2088
E188
ENDCHAR
STARTCHAR uni17A5
ENCODING 6053
SWIDTH 540 0
DWIDTH 9 0
BBX 8 11 -1 0
BITMAP
01
01
7F
80
BE
41
41
71
51
51
71
ENDCHAR
STARTCHAR uni17A6
ENCODING 6054
SWIDTH 780 0
DWIDTH 13 0
BBX 11 19 0 -4
BITMAP
0400
0400
07C0
0420
0020
0020
7820
8420
8420
8420
8420
E420
A420
A420
E420
7820
8C20
8420
C7C0
ENDCHAR
STARTCHAR uni17A7
ENCODING 6055
SWIDTH 540 0
DWIDTH 9 0
BBX 7 9 0 0
BITMAP
7C
82
C2
06
F8
82
86
8E
7A
ENDCHAR
STARTCHAR uni17A8
ENCODING 6056
SWIDTH 540 0
DWIDTH 9 0
BBX 7 12 0 0
BITMAP
FE
00
7C
C2
82
C2
04
F8
82
86
8E
7A
ENDCHAR
STARTCHAR uni17A9
ENCODING 6057
SWIDTH 540 0
DWIDTH 9 0
BBX 8 9 0 0
BITMAP
7C
82
C2
06
F8
83
87
8F
7B
ENDCHAR
STARTCHAR uni17AA
ENCODING 6058
SWIDTH 540 0
DWIDTH 9 0
BBX 8 13 -1 0
BITMAP
01
7F
80
BE
61
41
61
02
7C
41
43
47
3D
ENDCHAR
STARTCHAR uni17AB
ENCODING 6059
SWIDTH 540 0
DWIDTH 9 0
BBX 8 13 -1 -4
BITMAP
C3
82
41
41
41
41
41
41
3E
03
01
03
7C
ENDCHAR
STARTCHAR uni17AC
ENCODING 6060
SWIDTH 540 0
DWIDTH 9 0
BBX 10 13 -2 -4
BITMAP
6180
C300
6180
2080
2080
2080
2080
2080
1F00
0180
0080
0180
3EC0
ENDCHAR
STARTCHAR uni17AD
ENCODING 6061
SWIDTH 540 0
DWIDTH 9 0
BBX 7 13 0 -4
BITMAP
6C
92
82
82
82
E2
A2
A2
E2
06
02
06
F8
ENDCHAR
STARTCHAR uni17AE
ENCODING 6062
SWIDTH 540 0
DWIDTH 9 0
BBX 8 13 0 -4
BITMAP
6C
92
82
82
82
E2
A2
A2
E2
06
02
06
FB
ENDCHAR
STARTCHAR uni17AF
ENCODING 6063
SWIDTH 540 0
DWIDTH 9 0
BBX 8 12 -1 0
BITMAP
40
40
40
3E
01
C1
41
41
49
5F
77
63
ENDCHAR
STARTCHAR uni17B0
ENCODING 6064
SWIDTH 540 0
DWIDTH 9 0
BBX 7 13 0 -4
BITMAP
6C
92
82
82
82
E2
A2
A2
E2
06
FA
9E
F0
ENDCHAR
STARTCHAR uni17B1
ENCODING 6065
SWIDTH 540 0
DWIDTH 9 0
BBX 9 12 -1 0
BITMAP
7F00
8180
BE00
6100
4100
6100
0200
7C00
4100
4300
4700
3D00
ENDCHAR
STARTCHAR uni17B2
ENCODING 6066
SWIDTH 540 0
DWIDTH 9 0
BBX 7 9 0 0
BITMAP
7C
80
9C
82
86
8E
82
82
7C
ENDCHAR
STARTCHAR uni17B3
ENCODING 6067
SWIDTH 540 0
DWIDTH 9 0
BBX 9 15 -1 0
BITMAP
0400
0C00
0800
7F00
8180
8000
3E00
4100
6100
0300
7C00
4100
4300
4700
3D00
ENDCHAR
STARTCHAR uni17B6
ENCODING 6070
SWIDTH 240 0
DWIDTH 4 0
BBX 4 9 -2 0
BITMAP
E0
10
10
10
10
10
10
10
10
ENDCHAR
STARTCHAR uni17B7
ENCODING 6071
SWIDTH 0 0
DWIDTH 0 0
BBX 6 3 -8 11
BITMAP
70
9C
FC
ENDCHAR
STARTCHAR uni17B8
ENCODING 6072
SWIDTH 0 0
DWIDTH 0 0
BBX 6 3 -8 11
BITMAP
74
9C
FC
ENDCHAR
STARTCHAR uni17B9
ENCODING 6073
SWIDTH 0 0
DWIDTH 0 0
BBX 6 4 -8 11
BITMAP
0C
74
9C
FC
ENDCHAR
STARTCHAR uni17BA
ENCODING 6074
SWIDTH 0 0
DWIDTH 0 0
BBX 6 4 -8 11
BITMAP
0C
7C
9C
FC
ENDCHAR
STARTCHAR uni17BB
ENCODING 6075
SWIDTH 0 0
DWIDTH 0 0
BBX 2 3 -4 -4
BITMAP
C0
40
40
ENDCHAR
STARTCHAR uni17BC
ENCODING 6076
SWIDTH 0 0
DWIDTH 0 0
BBX 4 3 -6 -4
BITMAP
90
90
F0
ENDCHAR
STARTCHAR uni17BD
ENCODING 6077
SWIDTH 0 0
DWIDTH 0 0
BBX 5 3 -7 -4
BITMAP
88
A8
D8
ENDCHAR
STARTCHAR uni17BE
ENCODING 6078
SWIDTH 0 0
DWIDTH 0 0
BBX 6 3 -8 11
BITMAP
74
9C
FC
ENDCHAR
STARTCHAR uni17BF
ENCODING 6079
SWIDTH 300 0
DWIDTH 5 0
BBX 7 19 -4 -4
BITMAP
14
7C
9C
FE
02
02
02
02
02
02
02
02
02
02
02
42
42
42
3C
ENDCHAR
STARTCHAR uni17C0
ENCODING 6080
SWIDTH 300 0
DWIDTH 5 0
BBX 6 19 -3 -4
BITMAP
80
80
F8
84
04
04
04
04
04
04
04
04
04
04
04
84
84
84
78
ENDCHAR
STARTCHAR uni17C1
ENCODING 6081
SWIDTH 180 0
DWIDTH 3 0
BBX 4 9 -2 0
BITMAP
60
C0
60
20
20
20
20
20
30
ENDCHAR
STARTCHAR uni17C2
ENCODING 6082
SWIDTH 180 0
DWIDTH 3 0
BBX 5 14 -2 0
BITMAP
08
C8
98
F0
00
60
C0
60
20
20
20
20
20
30
ENDCHAR
STARTCHAR uni17C3
ENCODING 6083
SWIDTH 180 0
DWIDTH 3 0
BBX 4 15 -2 0
BITMAP
C0
40
70
10
F0
00
60
C0
60
20
20
20
20
20
30
ENDCHAR
STARTCHAR uni17C4
ENCODING 6084
SWIDTH 240 0
DWIDTH 4 0
BBX 4 9 -2 0
BITMAP
E0
10
10
10
10
10
10
10
10
ENDCHAR
STARTCHAR uni17C5
ENCODING 6085
SWIDTH 240 0
DWIDTH 4 0
BBX 4 14 -2 0
BITMAP
70
10
10
10
00
E0
10
10
10
10
10
10
10
10
ENDCHAR
STARTCHAR uni17C6
ENCODING 6086
SWIDTH 0 0
DWIDTH 0 0
BBX 4 4 -7 10
BITMAP
60
90
90
60
ENDCHAR
STARTCHAR uni17C7
ENCODING 6087
SWIDTH 300 0
DWIDTH 5 0
BBX 3 9 0 0
BITMAP
E0
A0
E0
00
00
40
A0
A0
60
ENDCHAR
STARTCHAR uni17C8
ENCODING 6088
SWIDTH 240 0
DWIDTH 4 0
BBX 2 7 0 1
BITMAP
C0
C0
00
00
00
C0
C0
ENDCHAR
STARTCHAR uni17C9
ENCODING 6089
SWIDTH 0 0
DWIDTH 0 0
BBX 4 3 -7 10
BITMAP
90
90
90
ENDCHAR
STARTCHAR uni17CA
ENCODING 6090
SWIDTH 0 0
DWIDTH 0 0
BBX 7 1 -9 10
BITMAP
FE
ENDCHAR
STARTCHAR uni17CB
ENCODING 6091
SWIDTH 0 0
DWIDTH 0 0
BBX 1 3 -6 10
BITMAP
80
80
80
ENDCHAR
STARTCHAR uni17CC
ENCODING 6092
SWIDTH 0 0
DWIDTH 0 0
BBX 6 4 -8 10
BITMAP
10
30
78
84
ENDCHAR
STARTCHAR uni17CD
ENCODING 6093
SWIDTH 0 0
DWIDTH 0 0
BBX 6 4 -8 10
BITMAP
04
FC
80
C0
ENDCHAR
STARTCHAR uni17CE
ENCODING 6094
SWIDTH 0 0
DWIDTH 0 0
BBX 5 3 -8 11
BITMAP
20
F8
20
ENDCHAR
STARTCHAR uni17CF
ENCODING 6095
SWIDTH 0 0
DWIDTH 0 0
BBX 6 4 -8 10
BITMAP
04
FC
F8
CC
ENDCHAR
STARTCHAR uni17D0
ENCODING 6096
SWIDTH 0 0
DWIDTH 0 0
BBX 6 3 -5 11
BITMAP
C4
8C
78
ENDCHAR
STARTCHAR uni17D1
ENCODING 6097
SWIDTH 0 0
DWIDTH 0 0
BBX 6 1 -8 10
BITMAP
FC
ENDCHAR
STARTCHAR uni17D2
ENCODING 6098
SWIDTH 0 0
DWIDTH 0 0
BBX 5 3 -8 -4
BITMAP
20
F8
20
ENDCHAR
STARTCHAR uni17D3
ENCODING 6099
SWIDTH 0 0
DWIDTH 0 0
BBX 6 4 -8 10
BITMAP
78
84
84
78
ENDCHAR
STARTCHAR uni17D4
ENCODING 6100
SWIDTH 480 0
DWIDTH 8 0
BBX 6 9 0 0
BITMAP
C4
8C
F4
04
04
04
04
04
04
ENDCHAR
STARTCHAR uni17D5
ENCODING 6101
SWIDTH 600 0
DWIDTH 10 0
BBX 8 9 0 0
BITMAP
C5
8D
F5
05
05
05
05
05
05
ENDCHAR
STARTCHAR uni17D6
ENCODING 6102
SWIDTH 420 0
DWIDTH 7 0
BBX 5 9 0 0
BITMAP
70
50
70
00
F8
20
50
50
30
ENDCHAR
STARTCHAR uni17D7
ENCODING 6103
SWIDTH 540 0
DWIDTH 9 0
BBX 7 12 0 -3
BITMAP
76
9E
C2
02
02
02
02
02
02
02
02
1C
ENDCHAR
STARTCHAR uni17D8
ENCODING 6104
SWIDTH 1920 0
DWIDTH 32 0
BBX 30 9 0 0
BITMAP
C43C18C4
8C42308C
F44218F4
04420804
04420804
04720804
04520804
04520804
0471F004
ENDCHAR
STARTCHAR uni17D9
ENCODING 6105
SWIDTH 600 0
DWIDTH 10 0
BBX 8 9 0 0
BITMAP
3C
5A
A5
A5
A5
A5
99
42
3C
ENDCHAR
STARTCHAR uni17DA
ENCODING 6106
SWIDTH 1260 0
DWIDTH 21 0
BBX 19 9 0 0
BITMAP
700000
888000
894400
994600
822AE0
822A80
842900
8C1000
700000
ENDCHAR
STARTCHAR uni17DB
ENCODING 6107
SWIDTH 300 0
DWIDTH 5 0
BBX 4 9 0 0
BITMAP
60
C0
60
20
F0
20
20
20
E0
ENDCHAR
STARTCHAR uni17E0
ENCODING 6112
SWIDTH 540 0
DWIDTH 9 0
BBX 7 9 0 0
BITMAP
7C
C6
82
82
82
82
82
C6
7C
ENDCHAR
STARTCHAR uni17E1
ENCODING 6113
SWIDTH 540 0
DWIDTH 9 0
BBX 7 9 0 0
BITMAP
7C
82
82
82
E2
02
82
C2
7C
ENDCHAR
STARTCHAR uni17E2
ENCODING 6114
SWIDTH 600 0
DWIDTH 10 0
BBX 9 11 -1 0
BITMAP
C000
4000
5D80
5A80
5880
5C80
4080
4080
4080
6180
3F00
ENDCHAR
STARTCHAR uni17E3
ENCODING 6115
SWIDTH 720 0
DWIDTH 12 0
BBX 10 9 0 0
BITMAP
7F80
8840
8840
8840
8840
8840
8840
8840
C840
ENDCHAR
STARTCHAR uni17E4
ENCODING 6116
SWIDTH 480 0
DWIDTH 8 0
BBX 7 11 -1 0
BITMAP
C0
40
40
40
4E
48
48
48
44
42
3C
ENDCHAR
STARTCHAR uni17E5
ENCODING 6117
SWIDTH 480 0
DWIDTH 8 0
BBX 7 12 0 0
BITMAP
02
02
72
72
FC
80
9C
90
90
98
8C
7C
ENDCHAR
STARTCHAR uni17E6
ENCODING 6118
SWIDTH 540 0
DWIDTH 9 0
BBX 7 12 0 0
BITMAP
80
80
80
FC
C6
82
02
62
82
82
86
7C
ENDCHAR
STARTCHAR uni17E7
ENCODING 6119
SWIDTH 600 0
DWIDTH 10 0
BBX 8 12 0 0
BITMAP
01
01
01
79
B5
85
85
85
85
85
85
C7
ENDCHAR
STARTCHAR uni17E8
ENCODING 6120
SWIDTH 540 0
DWIDTH 9 0
BBX 7 12 0 0
BITMAP
02
02
02
7E
82
80
8E
82
92
BE
EE
C6
ENDCHAR
STARTCHAR uni17E9
ENCODING 6121
SWIDTH 540 0
DWIDTH 9 0
BBX 7 12 0 0
BITMAP
02
02
02
7E
82
80
7C
80
8C
82
82
7C
ENDCHAR
STARTCHAR zwsp
ENCODING 8203
SWIDTH 0 0
DWIDTH 0 0
BBX 0 0 0 0
BITMAP
ENDCHAR
STARTCHAR uni17D21780
ENCODING 57344
SWIDTH 0 0
DWIDTH 0 0
BBX 6 4 -8 -5
BITMAP
78
84
84
84
ENDCHAR
STARTCHAR uni17D21781
ENCODING 57345
SWIDTH 0 0
DWIDTH 0 0
BBX 6 4 -8 -5
BITMAP
FC
9C
E4
F8
ENDCHAR
STARTCHAR uni17D21782
ENCODING 57346
SWIDTH 0 0
DWIDTH 0 0
BBX 6 4 -8 -5
BITMAP
78
84
E4
C4
ENDCHAR
STARTCHAR uni17D21783
ENCODING 57347
SWIDTH 360 0
DWIDTH 6 0
BBX 7 14 -3 -5
BITMAP
06
04
06
02
02
02
02
02
02
02
92
92
92
7C
ENDCHAR
STARTCHAR uni17D21784
ENCODING 57348
SWIDTH 0 0
DWIDTH 0 0
BBX 6 3 -8 -5
BITMAP
C4
8C
78
ENDCHAR
STARTCHAR uni17D21785
ENCODING 57349
SWIDTH 0 0
DWIDTH 0 0
BBX 7 4 -9 -5
BITMAP
3E
2E
EA
F2
ENDCHAR
STARTCHAR uni17D21786
ENCODING 57350
SWIDTH 0 0
DWIDTH 0 0
BBX 7 4 -9 -5
BITMAP
26
22
F2
EE
ENDCHAR
STARTCHAR uni17D21787
ENCODING 57351
SWIDTH 0 0
DWIDTH 0 0
BBX 9 4 -9 -5
BITMAP
C600
8380
9B00
7600
ENDCHAR
STARTCHAR uni17D21788
ENCODING 57352
SWIDTH 180 0
DWIDTH 3 0
BBX 8 14 -7 -5
BITMAP
03
02
03
01
01
01
01
01
01
01
F5
95
95
DF
ENDCHAR
STARTCHAR uni17D21789
ENCODING 57353
SWIDTH 0 0
DWIDTH 0 0
BBX 7 3 -9 -5
BITMAP
E6
32
1E
ENDCHAR
STARTCHAR uni17D21789.a
ENCODING 57354
SWIDTH 0 0
DWIDTH 0 0
BBX 12 4 -14 -5
BITMAP
E7F0
DA10
FC70
07F0
ENDCHAR
STARTCHAR uni17D2178A
ENCODING 57355
SWIDTH 0 0
DWIDTH 0 0
BBX 6 4 -8 -5
BITMAP
78
84
84
C4
ENDCHAR
STARTCHAR uni17D2178B
ENCODING 57356
SWIDTH 0 0
DWIDTH 0 0
BBX 7 4 -8 -5
BITMAP
04
FE
B4
CC
ENDCHAR
STARTCHAR uni17D2178C
ENCODING 57357
SWIDTH 0 0
DWIDTH 0 0
BBX 6 4 -8 -5
BITMAP
CC
7C
9C
FC
ENDCHAR
STARTCHAR uni17D2178D
ENCODING 57358
SWIDTH 180 0
DWIDTH 3 0
BBX 11 14 -10 -5
BITMAP
0060
0040
0020
0020
0020
0020
0020
0020
0020
0020
CC20
B420
87E0
C420
ENDCHAR
STARTCHAR uni17D2178E
ENCODING 57359
SWIDTH 0 0
DWIDTH 0 0
BBX 16 4 -18 -5
BITMAP
781E
8421
85A1
C661
ENDCHAR
STARTCHAR uni17D2178F
ENCODING 57360
SWIDTH 0 0
DWIDTH 0 0
BBX 6 4 -8 -5
BITMAP
78
84
84
C4
ENDCHAR
STARTCHAR uni17D21790
ENCODING 57361
SWIDTH 0 0
DWIDTH 0 0
BBX 7 4 -9 -5
BITMAP
70
98
88
C6
ENDCHAR
STARTCHAR uni17D21791
ENCODING 57362
SWIDTH 0 0
DWIDTH 0 0
BBX 6 4 -8 -5
BITMAP
0C
68
9C
FC
ENDCHAR
STARTCHAR uni17D21792
ENCODING 57363
SWIDTH 0 0
DWIDTH 0 0
BBX 6 4 -8 -5
BITMAP
0C
F4
BC
E0
ENDCHAR
STARTCHAR uni17D21793
ENCODING 57364
SWIDTH 0 0
DWIDTH 0 0
BBX 7 3 -9 -4
BITMAP
02
FE
FE
ENDCHAR
STARTCHAR uni17D21794
ENCODING 57365
SWIDTH 180 0
DWIDTH 3 0
BBX 6 14 -5 -5
BITMAP
0C
08
0C
04
04
04
04
04
04
04
C4
84
B4
CC
ENDCHAR
STARTCHAR uni17D21795
ENCODING 57366
SWIDTH 0 0
DWIDTH 0 0
BBX 6 4 -8 -5
BITMAP
8C
84
B4
CC
ENDCHAR
STARTCHAR uni17D21796
ENCODING 57367
SWIDTH 0 0
DWIDTH 0 0
BBX 6 4 -8 -5
BITMAP
CC
B4
84
C4
ENDCHAR
STARTCHAR uni17D21797
ENCODING 57368
SWIDTH 0 0
DWIDTH 0 0
BBX 7 4 -9 -5
BITMAP
3C
42
42
C2
ENDCHAR
STARTCHAR uni17D21798
ENCODING 57369
SWIDTH 0 0
DWIDTH 0 0
BBX 8 3 -9 -5
BITMAP
02
FF
03
ENDCHAR
STARTCHAR uni17D21799
ENCODING 57370
SWIDTH 180 0
DWIDTH 3 0
BBX 6 13 -5 -4
BITMAP
0C
08
0C
04
04
04
04
04
04
04
84
84
78
ENDCHAR
STARTCHAR uni17D2179A
ENCODING 57371
SWIDTH 240 0
DWIDTH 4 0
BBX 7 13 -1 -4
BITMAP
40
80
40
40
40
40
40
40
40
40
42
42
3C
ENDCHAR
STARTCHAR uni17D2179B
ENCODING 57372
SWIDTH 0 0
DWIDTH 0 0
BBX 7 4 -9 -5
BITMAP
72
B2
9A
9C
ENDCHAR
STARTCHAR uni17D2179C
ENCODING 57373
SWIDTH 0 0
DWIDTH 0 0
BBX 6 4 -8 -5
BITMAP
0C
7C
E4
F8
ENDCHAR
STARTCHAR uni17D2179F
ENCODING 57374
SWIDTH 180 0
DWIDTH 3 0
BBX 8 14 -6 -5
BITMAP
06
04
06
02
02
02
02
02
02
0F
C2
42
42
3C
ENDCHAR
STARTCHAR uni17D217A0
ENCODING 57375
SWIDTH 0 0
DWIDTH 0 0
BBX 6 4 -8 -5
BITMAP
9C
94
94
F4
ENDCHAR
STARTCHAR uni17D217A2
ENCODING 57376
SWIDTH 0 0
DWIDTH 0 0
BBX 7 4 -9 -5
BITMAP
42
7E
42
C6
ENDCHAR
STARTCHAR uni17BB.b
ENCODING 57377
SWIDTH 0 0
DWIDTH 0 0
BBX 2 2 -4 -7
BITMAP
C0
40
ENDCHAR
STARTCHAR uni17BC.b
ENCODING 57378
SWIDTH 0 0
DWIDTH 0 0
BBX 4 2 -6 -6
BITMAP
90
F0
ENDCHAR
STARTCHAR uni17BD.b
ENCODING 57379
SWIDTH 0 0
DWIDTH 0 0
BBX 5 2 -7 -6
BITMAP
88
F8
ENDCHAR
STARTCHAR uni17B7.a
ENCODING 57380
SWIDTH 0 0
DWIDTH 0 0
BBX 6 3 -8 12
BITMAP
70
98
FC
ENDCHAR
STARTCHAR uni17B8.a
ENCODING 57381
SWIDTH 0 0
DWIDTH 0 0
BBX 6 3 -8 12
BITMAP
74
8C
FC
ENDCHAR
STARTCHAR uni17B9.a
ENCODING 57382
SWIDTH 0 0
DWIDTH 0 0
BBX 6 3 -8 12
BITMAP
0C
F4
FC
ENDCHAR
STARTCHAR uni17BA.a
ENCODING 57383
SWIDTH 0 0
DWIDTH 0 0
BBX 6 3 -8 12
BITMAP
0C
FC
FC
ENDCHAR
STARTCHAR uni17C6.a
ENCODING 57384
SWIDTH 0 0
DWIDTH 0 0
BBX 4 3 -7 12
BITMAP
60
90
F0
ENDCHAR
STARTCHAR uni1789.a
ENCODING 57385
SWIDTH 840 0
DWIDTH 14 0
BBX 12 9 0 0
BITMAP
6DE0
9210
8210
8210
8210
E210
A210
E210
E210
ENDCHAR
STARTCHAR uni1794.a
ENCODING 57386
SWIDTH 540 0
DWIDTH 9 0
BBX 8 10 -1 -1
BITMAP
7F
80
41
41
41
41
41
43
3D
01
ENDCHAR
STARTCHAR uni17D2179A.b
ENCODING 57387
SWIDTH 240 0
DWIDTH 4 0
BBX 8 15 -2 -6
BITMAP
70
C0
60
20
20
20
20
20
20
20
20
20
20
21
1E
ENDCHAR
STARTCHAR uni17B717CD
ENCODING 57388
SWIDTH 0 0
DWIDTH 0 0
BBX 7 4 -8 11
BITMAP
02
66
98
FC
ENDCHAR
STARTCHAR uni17BF.b
ENCODING 57389
SWIDTH 300 0
DWIDTH 5 0
BBX 7 20 -4 -6
BITMAP
14
FC
FC
02
02
02
02
02
02
02
02
02
02
02
02
02
02
02
42
3C
ENDCHAR
STARTCHAR uni17C0.b
ENCODING 57390
SWIDTH 300 0
DWIDTH 5 0
BBX 6 21 -3 -6
BITMAP
80
80
F8
84
04
04
04
04
04
04
04
04
04
04
04
04
04
04
04
84
78
ENDCHAR
STARTCHAR uni17B7.r
ENCODING 57391
SWIDTH 0 0
DWIDTH 0 0
BBX 6 3 -6 11
BITMAP
70
8C
FC
ENDCHAR
STARTCHAR uni17B8.r
ENCODING 57392
SWIDTH 0 0
DWIDTH 0 0
BBX 6 3 -6 11
BITMAP
74
8C
FC
ENDCHAR
STARTCHAR uni17B9.r
ENCODING 57393
SWIDTH 0 0
DWIDTH 0 0
BBX 6 4 -6 11
BITMAP
1C
7C
8C
FC
ENDCHAR
STARTCHAR uni17BA.r
ENCODING 57394
SWIDTH 0 0
DWIDTH 0 0
BBX 6 4 -6 11
BITMAP
14
74
8C
FC
ENDCHAR
STARTCHAR uni17C6.r
ENCODING 57395
SWIDTH 0 0
DWIDTH 0 0
BBX 4 4 -5 10
BITMAP
60
90
90
60
ENDCHAR
STARTCHAR uni17C9.r
ENCODING 57396
SWIDTH 0 0
DWIDTH 0 0
BBX 4 3 -5 10
BITMAP
90
90
90
ENDCHAR
STARTCHAR uni17CD.r
ENCODING 57397
SWIDTH 0 0
DWIDTH 0 0
BBX 5 4 -5 10
BITMAP
08
F0
80
C0
ENDCHAR
STARTCHAR uni17B717CD.r
ENCODING 57398
SWIDTH 0 0
DWIDTH 0 0
BBX 7 4 -6 11
BITMAP
02
66
9C
FC
ENDCHAR
STARTCHAR uni17D2178A.n
ENCODING 57399
SWIDTH 0 0
DWIDTH 0 0
BBX 6 4 -13 -4
BITMAP
78
84
84
C4
ENDCHAR
STARTCHAR uni17D2178B.n
ENCODING 57400
SWIDTH 0 0
DWIDTH 0 0
BBX 7 4 -13 -4
BITMAP
04
FE
B4
CC
ENDCHAR
STARTCHAR uni17D2178C.n
ENCODING 57401
SWIDTH 0 0
DWIDTH 0 0
BBX 6 4 -13 -4
BITMAP
CC
FC
7C
FC
ENDCHAR
STARTCHAR uni17D217A0.n
ENCODING 57402
SWIDTH 0 0
DWIDTH 0 0
BBX 6 4 -13 -4
BITMAP
9C
94
94
F4
ENDCHAR
STARTCHAR uni17D2178A.r
ENCODING 57403
SWIDTH 0 0
DWIDTH 0 0
BBX 6 4 -6 -4
BITMAP
78
84
84
C4
ENDCHAR
STARTCHAR uni17D21797.r
ENCODING 57404
SWIDTH 0 0
DWIDTH 0 0
BBX 7 4 -7 -4
BITMAP
3C
42
42
C2
ENDCHAR
STARTCHAR uni17D21798.r
ENCODING 57405
SWIDTH 0 0
DWIDTH 0 0
BBX 8 4 -7 -4
BITMAP
02
02
FF
03
ENDCHAR
STARTCHAR uni17BB.n
ENCODING 57406
SWIDTH 0 0
DWIDTH 0 0
BBX 2 3 -9 -4
BITMAP
C0
40
40
ENDCHAR
STARTCHAR uni17BC.n
ENCODING 57407
SWIDTH 0 0
DWIDTH 0 0
BBX 4 3 -11 -4
BITMAP
90
90
F0
ENDCHAR
STARTCHAR uni17BD.n
ENCODING 57408
SWIDTH 0 0
DWIDTH 0 0
BBX 5 3 -12 -4
BITMAP
88
A8
D8
ENDCHAR
STARTCHAR uni17BB.n2
ENCODING 57409
SWIDTH 0 0
DWIDTH 0 0
BBX 2 2 -9 -6
BITMAP
C0
40
ENDCHAR
STARTCHAR uni17BC.n2
ENCODING 57410
SWIDTH 0 0
DWIDTH 0 0
BBX 4 2 -6 -6
BITMAP
90
F0
ENDCHAR
STARTCHAR uni17BD.n2
ENCODING 57411
SWIDTH 0 0
DWIDTH 0 0
BBX 5 2 -12 -6
BITMAP
88
F8
ENDCHAR
STARTCHAR uni17D21798.b
ENCODING 57412
SWIDTH 0 0
DWIDTH 0 0
BBX 8 3 -9 -6
BITMAP
02
03
FF
ENDCHAR
STARTCHAR uni17D217A0.b
ENCODING 57413
SWIDTH 0 0
DWIDTH 0 0
BBX 6 2 -8 -6
BITMAP
9C
F4
ENDCHAR
ENDFONT
